<svg xmlns="http://www.w3.org/2000/svg" xml:space="preserve" style="enable-background:new 0 0 1164.06 284.21"
    viewBox="0 0 1164.06 284.21">
<path d="M56.7074 222H0.03125L73.6463 3.81818H143.852L217.467 222H160.791L109.548 58.7898H107.844L56.7074 222ZM49.1435 136.134H167.609V176.19H49.1435V136.134ZM240.958 222V3.81818H331.086C347.421 3.81818 361.519 6.76562 373.38 12.6605C385.312 18.4844 394.509 26.8651 400.972 37.8026C407.435 48.669 410.667 61.5597 410.667 76.4744C410.667 91.6023 407.364 104.457 400.759 115.04C394.154 125.551 384.779 133.577 372.634 139.116C360.489 144.585 346.107 147.32 329.488 147.32H272.492V105.771H319.687C327.641 105.771 334.282 104.741 339.609 102.682C345.006 100.551 349.09 97.3551 351.86 93.0938C354.63 88.7614 356.015 83.2216 356.015 76.4744C356.015 69.7273 354.63 64.152 351.86 59.7486C349.09 55.2741 345.006 51.9361 339.609 49.7344C334.211 47.4616 327.57 46.3253 319.687 46.3253H293.692V222H240.958ZM363.792 122.284L418.124 222H360.596L307.329 122.284H363.792ZM645.521 112.909C645.521 136.915 640.905 157.263 631.672 173.953C622.439 190.643 609.939 203.321 594.172 211.986C578.476 220.651 560.862 224.983 541.331 224.983C521.729 224.983 504.08 220.615 488.384 211.879C472.688 203.143 460.223 190.466 450.99 173.847C441.828 157.156 437.247 136.844 437.247 112.909C437.247 88.9034 441.828 68.5554 450.99 51.8651C460.223 35.1747 472.688 22.4972 488.384 13.8324C504.08 5.16761 521.729 0.835219 541.331 0.835219C560.862 0.835219 578.476 5.16761 594.172 13.8324C609.939 22.4972 622.439 35.1747 631.672 51.8651C640.905 68.5554 645.521 88.9034 645.521 112.909ZM591.615 112.909C591.615 98.7045 589.591 86.7017 585.543 76.9006C581.565 67.0994 575.813 59.6775 568.284 54.6349C560.827 49.5923 551.842 47.071 541.331 47.071C530.891 47.071 521.906 49.5923 514.378 54.6349C506.849 59.6775 501.061 67.0994 497.013 76.9006C493.036 86.7017 491.047 98.7045 491.047 112.909C491.047 127.114 493.036 139.116 497.013 148.918C501.061 158.719 506.849 166.141 514.378 171.183C521.906 176.226 530.891 178.747 541.331 178.747C551.842 178.747 560.827 176.226 568.284 171.183C575.813 166.141 581.565 158.719 585.543 148.918C589.591 139.116 591.615 127.114 591.615 112.909ZM676.31 3.81818H741.615L797.013 138.903H799.57L854.967 3.81818H920.273V222H868.923V87.9801H867.112L814.697 220.615H781.885L729.47 87.2344H727.659V222H676.31V3.81818ZM1005.9 3.81818V222H953.165V3.81818H1005.9ZM1086.2 222H1029.52L1103.14 3.81818H1173.34L1246.96 222H1190.28L1139.04 58.7898H1137.34L1086.2 222ZM1078.64 136.134H1197.1V176.19H1078.64V136.134Z" fill="white"/>
</svg>
